PathFileType	4	(X/Y/Z)	C:/Users/opensim2020/Desktop/walking_exp_matlab/subject02_walking06_straight_02.trc																																																																																																																									
DataRate	CameraRate	NumFrames	NumMarkers	Units	OrigDataRate	OrigDataStartFrame	OrigNumFrames																																																																																																																					
100	100	5	41	mm	100	1546	183																																																																																																																					
Frame#	Time	LFHD			RFHD			LBHD			RBHD			C7			T10			CLAV			STRN			RBAK			LSHO			LUPA			LELB			LFRM			LWRA			LWRB			LFIN			RSHO			RUPA			RELB			RFRM			RWRA			RWRB			RFIN			LASI			RASI			LPSI			RPSI			LTHI			LKNE			LTIB			LANK			LHEE			LTOE			RTHI			RKNE			RTIB			RANK			RHEE			RTOE			*39			*40		
		X1	Y1	Z1	X2	Y2	Z2	X3	Y3	Z3	X4	Y4	Z4	X5	Y5	Z5	X6	Y6	Z6	X7	Y7	Z7	X8	Y8	Z8	X9	Y9	Z9	X10	Y10	Z10	X11	Y11	Z11	X12	Y12	Z12	X13	Y13	Z13	X14	Y14	Z14	X15	Y15	Z15	X16	Y16	Z16	X17	Y17	Z17	X18	Y18	Z18	X19	Y19	Z19	X20	Y20	Z20	X21	Y21	Z21	X22	Y22	Z22	X23	Y23	Z23	X24	Y24	Z24	X25	Y25	Z25	X26	Y26	Z26	X27	Y27	Z27	X28	Y28	Z28	X29	Y29	Z29	X30	Y30	Z30	X31	Y31	Z31	X32	Y32	Z32	X33	Y33	Z33	X34	Y34	Z34	X35	Y35	Z35	X36	Y36	Z36	X37	Y37	Z37	X38	Y38	Z38	X39	Y39	Z39	X40	Y40	Z40	X41	Y41	Z41
																																																																																																																												
115	1.14	402.76163	1753.66455	1002.28992	403.61206	1733.10413	1144.83789	276.33337	1673.21936	993.30023	264.37207	1650.6427	1134.71692	228.08675	1532.22131	1066.9657	178.90916	1256.96448	1090.05957	368.09793	1465.2533	1051.85107	421.02203	1293.72974	1065.89758	175.18163	1361.68579	1143.75171	292.89066	1500.57446	884.20404	266.996	1299.08081	808.13855	252.41167	1158.79907	801.51312	251.26154	1027.41907	790.63318	292.47586	895.47211	826.44916	249.96884	903.88129	789.36188	259.28467	836.89624	790.0332	314.88388	1507.87842	1250.047	296.56589	1326.31958	1351.7832	321.63174	1183.30151	1386.3219	369.56116	1072.78503	1407.81848	434.89053	954.90912	1389.74792	393.49072	946.0235	1427.03162	442.15854	892.57001	1429.66003	401.49509	996.2702	950.21582	412.94391	982.78607	1203.88623	196.43912	1040.84192	1039.96558	198.8105	1042.81287	1156.01343	391.05618	691.3089	879.44501	408.92545	500.73517	901.4856	294.81815	352.6395	923.242	220.92567	145.07002	963.56342	194.72015	126.66872	1025.16589	338.25925	58.23232	913.84918	336.46823	672.12592	1258.63184	328.58804	463.39264	1207.91248	282.36096	280.00626	1208.88721	255.7608	90.28835	1162.27783	217.81534	38.54992	1105.35449	406.59995	35.96357	1175.43738	297.76788	1812.88574	1092.69116	NaN	NaN	NaN
116	1.15	412.62851	1753.16345	1001.73724	413.58023	1733.26672	1144.0332	285.91968	1672.92468	993.42169	274.16025	1651.2002	1134.56653	237.74036	1532.52563	1067.73254	188.15645	1257.16284	1090.62048	377.12497	1465.07849	1052.08276	430.07645	1293.63599	1066.68726	184.87814	1362.34912	1145.15356	301.28442	1499.94812	884.60742	271.41382	1299.1709	808.62732	255.36288	1158.98828	802.11298	251.67265	1027.3916	791.17944	291.37192	895.07495	827.00549	249.04823	903.96918	789.92065	257.65298	837.20776	790.36066	324.92993	1508.73352	1250.00732	308.99222	1327.49561	1352.79138	336.03391	1184.94434	1388.26343	386.12744	1075.26941	1409.36145	453.4097	958.74219	1390.86572	412.46896	948.9707	1428.38489	462.29425	896.62915	1430.70435	411.85529	996.75549	952.50366	420.79871	982.0238	1205.61023	205.95316	1041.56152	1039.12976	207.08759	1042.95325	1155.32178	403.58383	692.83398	879.66772	423.48083	501.21277	902.73175	316.43365	346.89032	923.87695	252.97969	135.75742	963.60358	227.86676	115.6424	1025.33215	375.01135	55.6278	914.0274	341.98721	671.70044	1258.59521	331.24652	463.11691	1207.92322	283.24219	280.19211	1208.70276	256.06012	90.79511	1162.02051	218.06137	38.83096	1105.05798	406.52255	35.92978	1175.65857	307.91321	1813.43689	1092.21509	NaN	NaN	NaN
117	1.16	422.32199	1752.64575	1000.78534	423.42456	1733.2085	1142.93103	295.17612	1673.19165	992.88983	283.84241	1651.46716	1134.36108	246.99896	1532.37048	1067.90491	197.36612	1257.27014	1091.06299	386.49677	1464.9519	1052.12793	439.59482	1293.62756	1067.50208	194.48468	1362.6405	1146.34338	309.74063	1499.20569	884.91736	276.44742	1299.1709	809.21161	258.54163	1159.09521	802.57336	252.61191	1027.49036	791.71283	290.97174	894.91827	827.15906	248.37819	904.12463	790.68262	256.49139	837.34845	790.79553	335.14569	1509.4696	1250.10339	321.23734	1328.57092	1354.18408	350.37119	1186.65088	1390.36975	402.62344	1077.62305	1410.73816	471.78336	962.44983	1391.80298	431.2673	951.84796	1429.55054	482.29578	900.59058	1431.58765	422.3233	996.90161	954.38165	428.61292	981.0332	1207.39014	215.42749	1042.06628	1038.27405	215.35487	1042.92566	1154.50378	415.42966	694.01801	879.79785	437.50867	501.54065	903.95746	337.73624	341.19342	924.54828	285.90634	126.47766	963.22919	261.55185	104.9683	1025.02942	411.93561	53.33563	913.81384	347.24356	671.41956	1258.625	334.03986	462.75458	1207.82129	284.35995	280.32336	1208.52393	256.21838	91.05226	1161.71826	218.07118	39.23884	1105.22412	406.57397	35.99789	1175.77625	317.90543	1813.33533	1091.1438	NaN	NaN	NaN
118	1.17	432.1004	1752.29028	1000.01166	433.37424	1733.06152	1141.974	305.16141	1672.59827	992.75873	293.51617	1651.62146	1134.0675	256.51859	1532.19507	1068.2157	206.50945	1257.17004	1091.25073	395.91422	1464.72217	1052.21448	448.8671	1293.3999	1068.31848	204.2348	1362.63708	1147.07068	318.24164	1498.29236	885.19269	281.48361	1298.93481	809.78668	261.586	1159.19324	803.02808	254.40862	1027.75098	792.09424	291.49655	895.22357	827.14716	247.62756	904.2652	791.24817	255.56538	837.6037	791.10413	345.29645	1510.03455	1250.17786	333.56558	1329.43567	1355.1355	364.81317	1187.80139	1391.61121	418.83212	1079.88477	1411.88	490.02835	966.00818	1392.5835	449.98236	954.61877	1430.53064	501.97791	904.44366	1432.34778	432.68384	996.72107	955.83649	436.5444	980.04871	1208.90063	224.88972	1042.30713	1037.30029	223.61212	1042.72998	1153.58936	427.32138	694.98236	880.09784	450.73868	501.41046	905.448	358.94235	335.41327	925.19275	318.97433	117.64845	962.43427	295.79858	94.50049	1023.92749	448.92795	51.67189	913.15253	351.9826	671.04889	1257.99268	337.04825	462.43848	1207.79529	285.7908	280.45001	1208.30115	256.36267	91.01279	1161.38538	218.09132	39.45106	1104.54187	406.88214	36.16997	1175.81958	327.88776	1813.18372	1090.14124	NaN	NaN	NaN
119	1.18	441.73813	1751.65955	998.7962	443.40576	1732.84131	1141.31799	313.88641	1672.40698	992.00165	303.26025	1651.80127	1133.64087	266.03214	1531.98511	1068.44897	215.6656	1256.94202	1091.24182	405.83719	1464.5415	1051.9696	458.09943	1292.95398	1068.98547	214.06367	1362.26245	1147.39343	326.85306	1497.34998	885.47156	286.21143	1299.03613	810.42999	265.01859	1159.23718	803.58124	256.05334	1028.04443	792.67444	290.9682	894.89557	827.25549	247.65599	904.48987	791.75507	254.90704	837.8429	791.33716	355.40097	1510.41772	1250.05725	345.85577	1330.14954	1356.03772	379.18527	1189.0354	1392.97339	435.27469	1082.08875	1413.05054	508.0126	969.41907	1393.06372	468.3963	957.37347	1431.59485	521.50183	908.20093	1432.86389	442.8913	996.25415	957.02509	444.46814	978.91327	1210.18225	234.34984	1042.25012	1036.37744	231.97818	1042.35278	1152.58289	438.72046	695.59515	880.66052	463.38672	501.00708	907.10706	379.98642	329.7196	925.7312	352.34732	109.41483	961.32074	330.31149	84.94691	1022.71893	485.87997	50.65526	912.02338	356.9826	670.74744	1258.08875	340.16699	462.11868	1207.58655	287.4809	280.582	1208.06079	256.68423	91.22823	1161.11682	218.25621	39.60861	1104.22717	406.72455	36.07684	1175.91992	337.90723	1812.94629	1089.07483	NaN	NaN	NaN
